<?xml version="1.0" standalone="no"?>
<!DOCTYPE svg PUBLIC "-//W3C//DTD SVG 20010904//EN"
 "http://www.w3.org/TR/2001/REC-SVG-20010904/DTD/svg10.dtd">
<svg version="1.0" xmlns="http://www.w3.org/2000/svg"
 width="700.000000pt" height="700.000000pt" viewBox="0 0 700.000000 700.000000"
 preserveAspectRatio="xMidYMid meet">
<metadata>
Created by potrace 1.11, written by Peter Selinger 2001-2013
</metadata>
<g transform="translate(0.000000,700.000000) scale(0.100000,-0.100000)"
fill="#000000" stroke="none">
<path d="M3315 6973 c-753 -46 -1422 -305 -2010 -776 -141 -114 -404 -379
-523 -529 -606 -764 -861 -1711 -721 -2683 211 -1466 1369 -2659 2829 -2913
239 -42 301 -47 610 -47 309 0 371 5 610 46 985 171 1869 782 2386 1651 246
415 393 849 466 1378 18 129 17 671 0 800 -70 501 -198 896 -421 1295 -527
941 -1471 1593 -2526 1744 -242 35 -493 47 -700 34z m1480 -977 c115 -30 210
-96 275 -191 98 -142 104 -341 14 -492 -200 -338 -707 -286 -835 86 -59 171
-17 346 115 476 117 115 281 162 431 121z m-1009 -502 c141 -20 245 -46 255
-64 4 -8 15 -42 24 -75 52 -184 216 -354 407 -423 100 -36 280 -42 380 -14
l67 19 68 -76 c38 -42 91 -105 119 -141 216 -281 366 -656 402 -1006 l8 -81
-150 -7 c-82 -3 -231 -6 -330 -6 l-181 0 -17 103 c-80 490 -435 904 -908 1061
-301 99 -644 89 -929 -28 -36 -14 -68 -23 -72 -19 -22 22 -318 568 -312 573 5
4 51 25 103 47 335 142 692 188 1066 137z m-1231 -605 l167 -282 -33 -26
c-138 -107 -228 -202 -317 -335 -97 -146 -177 -347 -207 -521 -20 -115 -20
-343 0 -454 60 -337 234 -626 514 -851 l43 -35 -168 -280 c-92 -154 -168 -282
-170 -283 -8 -10 -203 148 -290 234 -237 235 -405 503 -505 804 l-42 130 51
52 c64 65 96 112 132 192 109 243 58 521 -131 722 l-50 52 27 88 c95 314 276
606 520 845 99 95 264 229 284 229 4 0 83 -127 175 -281z m-1301 -945 c223
-58 374 -288 337 -516 -36 -229 -226 -391 -456 -391 -284 0 -501 253 -456 532
44 270 309 444 575 375z m4252 -579 c7 -2 7 -34 -2 -106 -36 -303 -133 -578
-297 -839 -58 -92 -186 -256 -245 -313 l-49 -48 -59 18 c-95 29 -266 24 -371
-11 -101 -33 -214 -106 -283 -184 -46 -51 -140 -216 -140 -246 0 -6 -5 -28
-10 -48 -10 -36 -11 -37 -98 -57 -346 -81 -725 -64 -1067 46 -90 29 -260 96
-273 108 -2 2 68 132 155 289 135 246 161 286 178 282 11 -3 65 -20 120 -39
419 -146 882 -75 1244 190 157 115 316 305 406 482 59 120 114 297 130 421 4
30 9 58 11 61 4 6 629 1 650 -6z m-716 -1466 c127 -29 257 -134 313 -253 135
-285 -47 -616 -360 -655 -302 -38 -562 225 -515 520 43 270 302 448 562 388z"/>
</g>
</svg>
